<svg xmlns="http://www.w3.org/2000/svg" width="20" height="20"><path fill="none" d="M0 0h20v20H0z" data-name="Rectangle 3212"/><g data-name="ic_assist"><path fill="#585858" fill-rule="evenodd" d="M17.327 8.812c-.212.122-.457.254-.727.409-.189.109-.39.228-.6.364-.976.635-8.059 4.984-9.495 5.807s-3.674 1.12-4.317.02 1.246-2.367 2.36-3.7c1.27-1.524 2.93-3.187 2.93-3.187-.107-.516.4-.863.6-.976a.736.736 0 01.073-.037c-.142-.6.764-1.125.764-1.125l1.39-3.05a.28.28 0 01.114-.128.285.285 0 01.252-.016l1.241.514c.816.342-.932 2.29-.564 2.378a2.023 2.023 0 001.264-.331 3.424 3.424 0 00.891-.744c.582-.68-.036-1.671.308-1.869.115-.066.348-.042.778.115 1.687.649 2.656 2.678 3.364 3.943.479.853.138 1.173-.626 1.613zm-9.716.837a.1.1 0 00-.091.027l-.769.751a.1.1 0 00.048.163l3.91.811a.108.108 0 00.071-.011l1.194-.678a.1.1 0 00-.023-.187zm6.734-.507L9.006 8.12a.108.108 0 00-.091.028l-.764.748a.1.1 0 00.05.167l4.835.978a.108.108 0 00.071-.011l1.262-.7a.1.1 0 00-.024-.188zm-7.683 7.42a.1.1 0 01-.047.118l-.89.511a.1.1 0 01-.126-.019l-.661-.7a.1.1 0 01-.019-.077 6.437 6.437 0 001.577-.56zm2.021-1.115a.1.1 0 01-.047.118l-.89.511a.1.1 0 01-.126-.019l-.494-.581c.359-.214.839-.5 1.394-.837zm6.891-4.123a.1.1 0 01-.047.118l-.89.511a.1.1 0 01-.126-.019l-.592-.6c.534-.328 1.017-.625 1.4-.868zm1.619-1.992a6.55 6.55 0 00.324-.186l.16-.092.269.913a.1.1 0 01-.047.119l-.89.511a.1.1 0 01-.126-.019l-.656-.68c.175-.112.356-.22.565-.34.142-.081.271-.155.401-.226z" data-name="Path 88"/></g></svg>