<svg width="24" height="24" viewBox="0 0 24 24" fill="none" xmlns="http://www.w3.org/2000/svg">
<path d="M2 2L2 22" stroke="#292D32" stroke-width="1.5" stroke-miterlimit="10" stroke-linecap="round" stroke-linejoin="round"/>
<path d="M20 9.75L2 9.75L2 14.25L20 14.25C21.1 14.25 22 13.8 22 12.45L22 11.55C22 10.2 21.1 9.75 20 9.75Z" stroke="#292D32" stroke-width="1.5" stroke-linecap="round" stroke-linejoin="round"/>
<path d="M14 3L2 3L2 7L14 7C15.1 7 16 6.6 16 5.4L16 4.6C16 3.4 15.1 3 14 3Z" stroke="#292D32" stroke-width="1.5" stroke-linecap="round" stroke-linejoin="round"/>
<path d="M9 17L2 17L2 21L9 21C10.1 21 11 20.6 11 19.4L11 18.6C11 17.4 10.1 17 9 17Z" stroke="#292D32" stroke-width="1.5" stroke-linecap="round" stroke-linejoin="round"/>
</svg>
