<svg height="512pt" viewBox="0 0 512.00075 512" width="512pt" xmlns="http://www.w3.org/2000/svg"><path d="m485.574219 293.613281c13.132812-22.566406 21.878906-47.980469 25.066406-75.074219.011719-.085937.019531-.171874.03125-.257812.867187-7.460938 1.328125-15.046875 1.328125-22.738281 0-50.789063-19.46875-97.113281-51.328125-131.914063-.507813-.710937-1.105469-1.359375-1.785156-1.917968-20.695313-22.011719-46.414063-39.25-75.316407-49.84375-.519531-.234376-1.058593-.429688-1.609374-.570313-20.488282-7.304687-42.535157-11.296875-65.503907-11.296875-25.617187 0-50.097656 4.960938-72.539062 13.957031-.609375.183594-1.195313.425781-1.761719.722657-27.59375 11.375-52.03125 28.890624-71.609375 50.832031-.640625.566406-1.210937 1.203125-1.691406 1.90625-29.847657 34.34375-47.941407 79.160156-47.941407 128.125 0 7.339843.421876 14.585937 1.214844 21.71875.007813.089843.019532.175781.03125.261719 1.453125 12.945312 4.175782 25.507812 8.039063 37.566406l-105.042969 105.042968c-3.90625 3.90625-3.90625 10.238282 0 14.144532 1.953125 1.953125 4.511719 2.929687 7.070312 2.929687 2.558594 0 5.117188-.976562 7.070313-2.929687l98.742187-98.738282c2.75 6.105469 5.804688 12.050782 9.144532 17.804688.304687.6875.691406 1.332031 1.140625 1.929688 24.789062 41.628906 64.585937 73.316406 111.875 87.550781l-70.445313 70.441406c-3.902344 3.90625-3.902344 10.238281 0 14.144531 1.953125 1.953125 4.515625 2.929688 7.074219 2.929688s5.117187-.976563 7.070313-2.929688l79.183593-79.1875c10.851563 1.875 22 2.863282 33.375 2.863282 71.230469 0 133.679688-38.292969 167.867188-95.367188.5-.648438.921875-1.351562 1.25-2.105469zm-86.523438.394531-35.578125-54.75 18.917969-58.222656 44.964844-10.097656 11.699219-2.625 51.121093 52.496094c-3.105469 21.453125-10.105469 41.664062-20.261719 59.890625zm-129.605469-54.75-35.5625 54.722657-71.082031-13.640625c-10.183593-18.378906-17.160156-38.769532-20.183593-60.410156l51.1875-51.632813 56.722656 12.738281 12.605468 38.800782zm-98.542968-141.742187 9.019531 56.378906-38.976563 39.316407c.464844-35.386719 11.4375-68.285157 29.957032-95.695313zm116.792968 133.191406-17.664062-54.363281 46.242188-33.59375 46.242187 33.597656-17.664063 54.359375zm204.285157-36.710937-39.179688-40.234375 6.925781-59.546875c20.039063 28.253906 31.929688 62.660156 32.253907 99.78125zm-49.921875-120.957032-8.851563 76.089844-21.515625 4.828125-34.832031 7.820313-50.21875-36.484375v-54.136719l54.273437-38.898438c23.207032 9.195313 43.992188 23.203126 61.144532 40.78125zm-85-48.289062-41.023438 29.402344-45.734375-27.980469c14.714844-4.015625 30.1875-6.171875 46.15625-6.171875 13.972657 0 27.566407 1.648438 40.601563 4.75zm-111.027344 10.015625 60.242188 36.859375v53.667969l-35.421876 25.734375-14.792968 10.75-56.65625-12.71875-11.640625-72.761719c16.269531-17.546875 36.070312-31.769531 58.269531-41.53125zm-67.765625 268.90625 53.957031 10.359375 27.480469 47.632812c-32.464844-11.121093-60.667969-31.507812-81.4375-57.992187zm108.507813 64.890625-36.449219-63.179688 35.53125-54.675781h61.203125l35.53125 54.675781-36.441406 63.175782c-9.65625 1.652344-19.574219 2.523437-29.691407 2.523437-10.117187.003907-20.03125-.867187-29.683593-2.519531zm86.441406-6.898438 27.464844-47.613281 53.75-10.097656c-20.746094 26.347656-48.863282 46.628906-81.214844 57.710937zm0 0"/><path d="m137.722656 360.132812-134.792968 134.796876c-3.90625 3.90625-3.90625 10.238281 0 14.144531 1.953124 1.949219 4.511718 2.925781 7.070312 2.925781s5.117188-.976562 7.070312-2.929688l134.796876-134.792968c3.902343-3.90625 3.902343-10.238282 0-14.144532-3.90625-3.902343-10.238282-3.902343-14.144532 0zm0 0"/><path d="m166.148438 481.011719c-2.628907 0-5.207032 1.070312-7.066407 2.929687s-2.933593 4.4375-2.933593 7.078125c0 2.628907 1.070312 5.199219 2.933593 7.0625 1.859375 1.871094 4.4375 2.9375 7.066407 2.9375 2.632812 0 5.210937-1.066406 7.070312-2.9375 1.859375-1.859375 2.929688-4.433593 2.929688-7.0625 0-2.640625-1.066407-5.21875-2.929688-7.078125-1.859375-1.859375-4.4375-2.929687-7.070312-2.929687zm0 0"/></svg>