<svg xmlns="http://www.w3.org/2000/svg" width="20" height="20"><defs><style>.prefix__cls-1{fill:none}.prefix__cls-2{fill:#585858}</style></defs><g id="prefix__ic_goal" transform="translate(-7658 -392)"><path id="prefix__Rectangle_3217" d="M0 0h20v20H0z" class="prefix__cls-1" data-name="Rectangle 3217" transform="translate(7658 392)"/><g id="prefix__ic_goal_24px" transform="translate(7660.223 394.222)"><path id="prefix__Path_768" d="M14.969 14.407a5.436 5.436 0 0 1-.645-.039.432.432 0 0 1-.316-.251c-.226-.825-.438-1.612-.645-2.373a.458.458 0 0 1 .187-.554l1.812-1.625a.426.426 0 0 1 .548 0 5.9 5.9 0 0 1 1.612 1.29.748.748 0 0 1 .168.451 4.513 4.513 0 0 1-.774 2.54.129.129 0 0 1-.032.058.877.877 0 0 1-.368.3 5.2 5.2 0 0 1-1.547.206zm.78-4.41z" class="prefix__cls-2" data-name="Path 768" transform="translate(-4.658 -3.284)"/><path id="prefix__Path_769" d="M5.8 11.86a.4.4 0 0 1-.239-.084A4.971 4.971 0 0 1 4.1 10.441a.555.555 0 0 1-.1-.309 4.816 4.816 0 0 1 .645-2.4.251.251 0 0 1 .055-.069.516.516 0 0 1 .226-.123 4.172 4.172 0 0 1 1.56-.3 2.579 2.579 0 0 1 .5 0 .419.419 0 0 1 .368.368c.129.561.271 1.135.413 1.715l.11.458a.413.413 0 0 1-.116.393L6.076 11.75a.374.374 0 0 1-.264.11zm-.188-.522zm1.257-3.611z" class="prefix__cls-2" data-name="Path 769" transform="translate(-1.342 -2.49)"/><path id="prefix__Path_770" d="M7.737 0a7.737 7.737 0 1 0 7.737 7.737A7.737 7.737 0 0 0 7.737 0zm.309 14.185-.213-.7-.045-.155a.438.438 0 0 0-.438-.38 4.378 4.378 0 0 1-2.476-.806.593.593 0 0 0-.239-.058.374.374 0 0 0-.277.09l-.645.606a6.448 6.448 0 0 1 3.6-11.49l.129.445a4.571 4.571 0 0 1 .129.451.5.5 0 0 0 .3.3h.064a8.421 8.421 0 0 1 2.482.774.413.413 0 0 0 .181.039.535.535 0 0 0 .245-.064l.858-.606a6.448 6.448 0 0 1-3.654 11.554z" class="prefix__cls-2" data-name="Path 770" transform="translate(.078 .078)"/><path id="prefix__Rectangle_2687" d="M0 0h15.556v15.556H0z" class="prefix__cls-1" data-name="Rectangle 2687"/></g></g></svg>