<svg height="511" viewBox="0 -19 511.99989 511" width="511"><path d="m511.0625 355.230469-33.105469-120.476563c-1.519531-5.523437-4.816406-10.390625-9.382812-13.84375l-60.707031-45.9375-89.039063-77.523437 56.375-2.46875 81.851563 36.613281c10.441406 4.671875 22.65625-.03125 27.308593-10.429688 4.664063-10.421874-.007812-22.648437-10.429687-27.308593l-86.308594-38.609375c-2.933594-1.3125-6.128906-1.921875-9.34375-1.78125l-101.289062 4.496094c-14.566407.644531-28.210938 7.300781-37.691407 18.378906l-35.902343 41.972656-67.527344 37.933594-37.742188 5.359375c3.132813 6.503906 5.09375 13.585937 5.71875 20.992187.582032 6.890625-.019531 13.699219-1.710937 20.199219l43.386719-6.164063c2.535156-.363281 4.984374-1.191406 7.21875-2.445312l60.550781-34.015625 109.078125 94.972656c.125.199219.242187.402344.371094.597657l49.128906 74.671874 16.261718 119.964844c1.921876 14.210938 15 24.207032 29.257813 22.273438 14.230469-1.925782 24.203125-15.027344 22.277344-29.257813l-17.054688-125.828125c-.519531-3.855468-1.902343-7.546875-4.042969-10.796875l-50.910156-77.375 10.3125-11.828125 52.175782 39.484375 30.765624 111.960938c3.804688 13.839843 18.109376 21.988281 31.964844 18.183593 13.847656-3.804687 21.992188-18.117187 18.183594-31.964843zm0 0"/><path d="m213.207031 11.734375c-18.996093-16.558594-47.816406-14.585937-64.378906 4.410156-16.558594 18.992188-14.585937 47.816407 4.40625 64.375 18.996094 16.5625 47.820313 14.589844 64.378906-4.40625 16.5625-18.992187 14.585938-47.816406-4.40625-64.378906zm0 0"/><path d="m72.632812 153.902344c-18.703124-15.792969-46.546874-13.304688-62.214843 5.246094-15.730469 18.628906-13.382813 46.484374 5.246093 62.214843 18.703126 15.792969 46.546876 13.304688 62.210938-5.246093 15.734375-18.628907 13.386719-46.480469-5.242188-62.214844zm0 0"/></svg>