<svg xmlns="http://www.w3.org/2000/svg" width="20" height="20"><defs><style>.prefix__cls-1{fill:#585858}</style></defs><g id="prefix__ic_matches_played" transform="translate(-99 -107)"><g id="prefix__Group_4613" data-name="Group 4613" transform="translate(100.644 111.331)"><path id="prefix__Subtraction_69" d="M14.618 12H9V9.327A3.189 3.189 0 009 3.05V0h5.615a2.253 2.253 0 012.252 2.249V3h-2.99v6h2.992v.75A2.253 2.253 0 0114.618 12zm-6.74 0H2.251A2.253 2.253 0 010 9.75V9h3V3H0v-.751A2.253 2.253 0 012.251 0h5.626v3.05a3.188 3.188 0 000 6.277V12z" class="prefix__cls-1" data-name="Subtraction 69"/><path id="prefix__Rectangle_3249" d="M0 0h1.875v3.75H0z" class="prefix__cls-1" data-name="Rectangle 3249" transform="translate(.003 4.126)"/><path id="prefix__Rectangle_3254" d="M0 0h1.875v3.75H0z" class="prefix__cls-1" data-name="Rectangle 3254" transform="translate(15.003 4.126)"/><circle id="prefix__Ellipse_273" cx="2.063" cy="2.063" r="2.063" class="prefix__cls-1" data-name="Ellipse 273" transform="translate(6.378 4.126)"/></g><path id="prefix__Rectangle_3255" fill="none" d="M0 0h20v20H0z" data-name="Rectangle 3255" transform="translate(99 107)"/></g></svg>