<svg id="Capa_1" enable-background="new 0 0 510 510" height="512" viewBox="0 0 510 510" width="512" xmlns="http://www.w3.org/2000/svg"><g id="XMLID_1989_"><path id="XMLID_3121_" d="m150 240c-41.354 0-75 33.645-75 75s33.646 75 75 75c41.355 0 75-33.645 75-75s-33.645-75-75-75zm0 120c-24.813 0-45-20.187-45-45 0-24.814 20.188-45 45-45 24.814 0 45 20.186 45 45 0 24.813-20.186 45-45 45z"/><path id="XMLID_3303_" d="m368.786 165-30 30h-38.786v-30h-150c-5.639 0-11.203.323-16.682.933-6.349-26.318-30.079-45.933-58.318-45.933-33.084 0-60 26.916-60 60 0 16.071 6.353 31.096 17.278 42.145-20.203 25.558-32.278 57.822-32.278 92.855 0 82.71 67.289 150 150 150 73.146 0 134.894-52.294 147.61-123.23l212.39-60.443v-116.327zm-293.786-15c13.846 0 25.53 9.428 28.973 22.201-18.629 5.996-35.893 15.6-50.877 28.302-5.13-5.468-8.096-12.743-8.096-20.503 0-16.542 13.458-30 30-30zm405 108.674-209.635 59.658-1.108 10.02c-6.722 60.799-57.991 106.648-119.257 106.648-66.168 0-120-53.832-120-120 0-54.779 36.896-101.104 87.143-115.427.028-.009.057-.017.086-.024 10.42-2.963 21.414-4.549 32.771-4.549h120v30h81.213l30-30h98.787z"/><path id="XMLID_3314_" d="m315 45h30v60h-30z"/><path id="XMLID_3325_" d="m381.213 86.361h60v30h-60z" transform="matrix(.707 -.707 .707 .707 48.774 320.468)"/><path id="XMLID_3326_" d="m233.787 71.361h29.999v60h-29.999z" transform="matrix(.707 -.707 .707 .707 1.195 205.607)"/></g></svg>