<?xml version="1.0" encoding="iso-8859-1"?>
<!-- Generator: Adobe Illustrator 19.0.0, SVG Export Plug-In . SVG Version: 6.00 Build 0)  -->
<svg version="1.1" id="Capa_1" xmlns="http://www.w3.org/2000/svg" xmlns:xlink="http://www.w3.org/1999/xlink" x="0px" y="0px"
	 viewBox="0 0 512 512" style="enable-background:new 0 0 512 512;" xml:space="preserve">
<g>
	<g>
		<path d="M256,0C115.215,0,0,117.608,0,257c0,140.61,115.39,255,256,255c137.53,0,256-112.902,256-255C512,119.313,398.41,0,256,0z
			 M271,92.09l62.657-45.991c40.547,14.982,75.553,41.235,101.29,75.06l-25.421,72.9l-72.323,22.189L271,166.03V92.09z
			 M178.321,46.106l62.779,46v73.813l-68.759,46.538l-66.989-22.731L81.894,114.69C107.093,83.918,140.352,60.14,178.321,46.106z
			 M67.471,379.415c-22.077-33.887-36.202-74.026-37.205-117.164l64.781-44.333l67.861,23.027l26.008,81.096l-43.204,57.962
			L67.471,379.415z M313.513,474.271C295.119,479.147,275.907,482,256,482c-21.976,0-43.169-3.309-63.261-9.21l-22.917-74.932
			l42.969-57.916h83.751l42.29,59.657L313.513,474.271z M364.03,383.286l-43.358-61.364l24.913-76.868l72.75-22.319l63.06,46.198
			c-2.27,42.971-17.459,82.789-40.594,116.083L364.03,383.286z"/>
	</g>
</g>
<g>
</g>
<g>
</g>
<g>
</g>
<g>
</g>
<g>
</g>
<g>
</g>
<g>
</g>
<g>
</g>
<g>
</g>
<g>
</g>
<g>
</g>
<g>
</g>
<g>
</g>
<g>
</g>
<g>
</g>
</svg>
