<svg id="Capa_1" enable-background="new 0 0 509.806 509.806" height="512" viewBox="0 0 509.806 509.806" width="512" xmlns="http://www.w3.org/2000/svg"><g><path d="m254.306 141.826c62.989 0 105.806 12.577 130.633 23.128l11.733-27.609c-71.375-33.572-213.601-33.48-284.733 0l11.733 27.609c24.828-10.551 67.645-23.128 130.634-23.128z"/><path d="m509.806 174.826c0-36.076-28.039-69.029-78.951-92.788-92.848-45.28-259.251-45.28-352.098.002-56.135 27.19-85.074 61.421-77.595 106.391l30.848 180.861c4.834 29.006 30.204 53.055 73.365 69.546 75.403 30.52 223.458 30.519 298.861-.001 43.162-16.49 68.531-40.539 73.356-69.489l30.857-180.916c.898-4.477 1.357-9.016 1.357-13.606zm-418.362-65.603c84.952-41.553 241.774-41.554 326.725.002 101.126 47.883 65.726 109.673-23.362 140.729v-51.127h-280v51.127c-89.122-31.076-124.469-92.854-23.363-140.731zm273.362 149.768c-65.822 17.033-154.178 17.033-220 0v-30.165h220zm-135 172.29v-24.455c0-13.785 11.215-25 25-25s25 11.215 25 25v24.455c-16.329.726-33.671.726-50 0zm163.723-20.467c-22.946 8.768-51.677 14.982-83.723 18.279v-22.268c0-30.327-24.673-55-55-55s-55 24.673-55 55v22.268c-48.818-5.301-127.661-21.167-138.214-64.788.001-.001-5.376-31.528-5.376-31.528 26.422 18.064 63.406 32.208 107.775 40.686l5.631-29.467c-59.41-11.352-105.715-34.57-121.884-60.924l-6.406-37.561c104.13 75.484 322.767 75.513 426.949 0l-6.406 37.561c-16.169 26.354-62.474 49.572-121.884 60.924l5.631 29.467c44.369-8.478 81.354-22.622 107.775-40.686l-5.387 31.583c-2.943 17.658-22.291 34.155-54.481 46.454z"/></g></svg>